<?xml version="1.0" standalone="no"?><!DOCTYPE svg PUBLIC "-//W3C//DTD SVG 1.1//EN" "http://www.w3.org/Graphics/SVG/1.1/DTD/svg11.dtd"><svg t="1735398890028" class="icon" viewBox="0 0 1024 1024" version="1.1" xmlns="http://www.w3.org/2000/svg" p-id="8221" xmlns:xlink="http://www.w3.org/1999/xlink" width="32" height="32"><path d="M745.904 682c66.168 0 120 53.832 120 120v12H984a40 40 0 1 1 0 80h-118.096V904c0 66.168-53.832 120-120 120-66.16 0-120-53.832-120-120v-102c0-66.168 53.84-120 120-120z m0 80c-22.048 0-40 17.944-40 40V904c0 22.056 17.952 40 40 40 22.056 0 40-17.944 40-40v-102c0-22.056-17.944-40-40-40z m-240 52a40 40 0 1 1 0 80H40a40 40 0 1 1 0-80zM394 338c66.168 0 120 53.832 120 120v13.76H984a40 40 0 0 1 0 80H514v10.24c0 66.168-53.832 120-120 120s-120-53.832-120-120v-104c0-66.168 53.832-120 120-120z m0 80c-22.056 0-40 17.944-40 40v104c0 22.056 17.944 40 40 40s40-17.944 40-40v-104c0-22.056-17.944-40-40-40z m-240 53.76a40 40 0 1 1 0 80H40a40 40 0 1 1 0-80zM746 0c66.168 0 120 53.832 120 120v12H984a40 40 0 1 1 0 80h-118v10c0 66.168-53.832 120-120 120s-120-53.832-120-120V120c0-66.168 53.832-120 120-120z m0 80c-22.056 0-40 17.944-40 40v102c0 22.056 17.944 40 40 40s40-17.944 40-40V120c0-22.056-17.944-40-40-40z m-240 52a40 40 0 1 1 0 80H40a40 40 0 1 1 0-80z" p-id="8222" fill="#ffffff"></path></svg>